<?xml version="1.0" encoding="utf-8"?>
<!-- Generator: Adobe Illustrator 24.0.2, SVG Export Plug-In . SVG Version: 6.00 Build 0)  -->
<svg version="1.1" id="Layer_1" xmlns="http://www.w3.org/2000/svg" xmlns:xlink="http://www.w3.org/1999/xlink" x="0px" y="0px"
	 viewBox="0 0 288 560" style="enable-background:new 0 0 288 560;" xml:space="preserve">
<style type="text/css">
	.st0{clip-path:url(#SVGID_2_);fill:none;stroke:#DADCE0;stroke-width:0.5716;}
	.st1{clip-path:url(#SVGID_2_);fill:#666666;}
	.st2{clip-path:url(#SVGID_2_);fill:none;stroke:#DADCE0;stroke-width:0.2858;}
	.st3{fill:none;stroke:#4285F4;stroke-width:1.1432;}
</style>
<g>
	<defs>
		<rect id="SVGID_1_" x="56.71" y="222.47" width="174.33" height="114.32"/>
	</defs>
	<clipPath id="SVGID_2_">
		<use xlink:href="#SVGID_1_"  style="overflow:visible;"/>
	</clipPath>
	<line class="st0" x1="91.29" y1="308.2" x2="91.29" y2="311.63"/>
	<path class="st1" d="M75.32,316.37l0.56-0.05c0.03,0.23,0.09,0.41,0.19,0.55c0.1,0.14,0.25,0.26,0.45,0.35
		c0.2,0.09,0.43,0.13,0.69,0.13c0.23,0,0.43-0.03,0.6-0.1c0.17-0.07,0.3-0.16,0.39-0.28c0.08-0.12,0.13-0.25,0.13-0.39
		c0-0.14-0.04-0.26-0.12-0.37c-0.08-0.11-0.22-0.19-0.41-0.27c-0.12-0.05-0.39-0.12-0.8-0.22c-0.41-0.1-0.7-0.19-0.87-0.28
		c-0.21-0.11-0.38-0.25-0.48-0.42c-0.11-0.17-0.16-0.35-0.16-0.56c0-0.23,0.06-0.44,0.19-0.64c0.13-0.2,0.32-0.35,0.56-0.45
		c0.25-0.1,0.52-0.15,0.83-0.15c0.33,0,0.63,0.05,0.88,0.16c0.25,0.11,0.45,0.27,0.59,0.47c0.14,0.21,0.21,0.45,0.22,0.71
		l-0.57,0.04c-0.03-0.28-0.13-0.5-0.31-0.64c-0.18-0.15-0.44-0.22-0.78-0.22c-0.36,0-0.62,0.07-0.79,0.2
		c-0.16,0.13-0.25,0.29-0.25,0.48c0,0.16,0.06,0.29,0.17,0.4c0.11,0.1,0.41,0.21,0.9,0.32c0.48,0.11,0.82,0.21,1,0.29
		c0.26,0.12,0.46,0.27,0.58,0.46c0.12,0.19,0.19,0.4,0.19,0.64c0,0.24-0.07,0.47-0.21,0.68c-0.14,0.21-0.33,0.38-0.59,0.49
		c-0.26,0.12-0.55,0.18-0.87,0.18c-0.41,0-0.75-0.06-1.02-0.18c-0.28-0.12-0.49-0.3-0.65-0.54
		C75.41,316.94,75.33,316.67,75.32,316.37z M81.78,317.81v-0.48c-0.25,0.37-0.6,0.55-1.03,0.55c-0.19,0-0.37-0.04-0.54-0.11
		c-0.17-0.07-0.29-0.17-0.37-0.28c-0.08-0.11-0.14-0.25-0.17-0.41c-0.02-0.11-0.03-0.28-0.03-0.52v-2.02h0.55v1.81
		c0,0.29,0.01,0.48,0.03,0.58c0.03,0.15,0.11,0.26,0.22,0.34c0.11,0.08,0.25,0.12,0.42,0.12s0.32-0.04,0.47-0.13
		c0.15-0.08,0.25-0.2,0.31-0.35c0.06-0.15,0.09-0.36,0.09-0.64v-1.75h0.55v3.26H81.78z M83.14,317.81v-3.26h0.5v0.46
		c0.24-0.36,0.59-0.54,1.04-0.54c0.2,0,0.38,0.04,0.54,0.11c0.16,0.07,0.29,0.16,0.37,0.28c0.08,0.11,0.14,0.25,0.17,0.41
		c0.02,0.1,0.03,0.28,0.03,0.54v2h-0.55v-1.98c0-0.23-0.02-0.39-0.06-0.51c-0.04-0.11-0.12-0.2-0.23-0.27
		c-0.11-0.07-0.24-0.1-0.39-0.1c-0.24,0-0.44,0.07-0.61,0.22c-0.17,0.15-0.26,0.43-0.26,0.85v1.78H83.14z M88.48,317.81v-4.5h3.04
		v0.53h-2.44v1.39h2.11v0.53h-2.11v2.04H88.48z M94.46,316.76l0.57,0.07c-0.09,0.33-0.26,0.59-0.5,0.78
		c-0.24,0.18-0.55,0.28-0.93,0.28c-0.48,0-0.86-0.15-1.13-0.44c-0.28-0.29-0.42-0.71-0.42-1.24c0-0.55,0.14-0.97,0.42-1.28
		c0.28-0.3,0.65-0.45,1.1-0.45c0.44,0,0.79,0.15,1.07,0.45c0.28,0.3,0.41,0.71,0.41,1.25c0,0.03,0,0.08,0,0.15h-2.43
		c0.02,0.36,0.12,0.63,0.3,0.82c0.18,0.19,0.41,0.29,0.68,0.29c0.2,0,0.38-0.05,0.52-0.16C94.26,317.17,94.37,317,94.46,316.76z
		 M92.64,315.87h1.82c-0.02-0.27-0.09-0.48-0.21-0.62c-0.18-0.21-0.4-0.32-0.68-0.32c-0.25,0-0.47,0.08-0.64,0.25
		C92.76,315.36,92.66,315.58,92.64,315.87z M96.23,317.81h-0.51v-4.5h0.55v1.61c0.23-0.29,0.53-0.44,0.89-0.44
		c0.2,0,0.39,0.04,0.57,0.12c0.18,0.08,0.33,0.19,0.44,0.34c0.12,0.15,0.21,0.32,0.27,0.53c0.07,0.21,0.1,0.43,0.1,0.66
		c0,0.56-0.14,0.99-0.41,1.3c-0.28,0.3-0.61,0.46-0.99,0.46c-0.38,0-0.69-0.16-0.91-0.48V317.81z M96.22,316.16
		c0,0.39,0.05,0.67,0.16,0.85c0.17,0.28,0.41,0.43,0.71,0.43c0.24,0,0.45-0.1,0.63-0.31c0.18-0.21,0.26-0.52,0.26-0.94
		c0-0.43-0.08-0.74-0.25-0.94c-0.17-0.2-0.37-0.3-0.61-0.3c-0.24,0-0.45,0.1-0.63,0.31C96.31,315.46,96.22,315.76,96.22,316.16z
		 M102.89,317.81h-0.55v-3.52c-0.13,0.13-0.31,0.25-0.52,0.38c-0.22,0.13-0.41,0.22-0.58,0.29v-0.53c0.31-0.15,0.58-0.32,0.81-0.53
		c0.23-0.21,0.39-0.41,0.49-0.6h0.36V317.81z M107.18,314.41l-0.55,0.04c-0.05-0.22-0.12-0.37-0.21-0.47
		c-0.15-0.16-0.33-0.24-0.55-0.24c-0.18,0-0.33,0.05-0.46,0.15c-0.17,0.13-0.31,0.31-0.41,0.56c-0.1,0.24-0.15,0.59-0.16,1.04
		c0.13-0.2,0.3-0.35,0.49-0.45c0.19-0.1,0.39-0.15,0.6-0.15c0.37,0,0.68,0.14,0.94,0.41c0.26,0.27,0.39,0.62,0.39,1.05
		c0,0.28-0.06,0.54-0.18,0.79c-0.12,0.24-0.29,0.43-0.5,0.56c-0.21,0.13-0.45,0.19-0.72,0.19c-0.46,0-0.84-0.17-1.13-0.51
		c-0.29-0.34-0.44-0.9-0.44-1.67c0-0.87,0.16-1.5,0.48-1.9c0.28-0.34,0.66-0.52,1.13-0.52c0.35,0,0.64,0.1,0.87,0.3
		C106.99,313.79,107.13,314.06,107.18,314.41z M104.92,316.35c0,0.19,0.04,0.37,0.12,0.55c0.08,0.17,0.19,0.31,0.34,0.4
		c0.15,0.09,0.3,0.14,0.46,0.14c0.23,0,0.43-0.09,0.6-0.28c0.17-0.19,0.25-0.44,0.25-0.77c0-0.31-0.08-0.56-0.25-0.74
		c-0.17-0.18-0.37-0.27-0.63-0.27c-0.25,0-0.46,0.09-0.64,0.27C105.01,315.83,104.92,316.06,104.92,316.35z"/>
	<line class="st0" x1="148.45" y1="308.2" x2="148.45" y2="311.63"/>
	<path class="st1" d="M134.23,316.37l0.56-0.05c0.03,0.23,0.09,0.41,0.19,0.55c0.1,0.14,0.25,0.26,0.45,0.35
		c0.2,0.09,0.43,0.13,0.69,0.13c0.23,0,0.43-0.03,0.6-0.1c0.17-0.07,0.3-0.16,0.39-0.28c0.08-0.12,0.13-0.25,0.13-0.39
		c0-0.14-0.04-0.26-0.12-0.37c-0.08-0.11-0.22-0.19-0.41-0.27c-0.12-0.05-0.39-0.12-0.8-0.22c-0.41-0.1-0.7-0.19-0.87-0.28
		c-0.21-0.11-0.38-0.25-0.48-0.42c-0.11-0.17-0.16-0.35-0.16-0.56c0-0.23,0.06-0.44,0.19-0.64c0.13-0.2,0.32-0.35,0.56-0.45
		c0.25-0.1,0.52-0.15,0.83-0.15c0.33,0,0.63,0.05,0.88,0.16c0.25,0.11,0.45,0.27,0.59,0.47c0.14,0.21,0.21,0.45,0.22,0.71
		l-0.57,0.04c-0.03-0.28-0.13-0.5-0.31-0.64c-0.18-0.15-0.44-0.22-0.78-0.22c-0.36,0-0.62,0.07-0.79,0.2
		c-0.16,0.13-0.25,0.29-0.25,0.48c0,0.16,0.06,0.29,0.17,0.4c0.11,0.1,0.41,0.21,0.9,0.32c0.48,0.11,0.82,0.21,1,0.29
		c0.26,0.12,0.46,0.27,0.58,0.46c0.12,0.19,0.19,0.4,0.19,0.64c0,0.24-0.07,0.47-0.21,0.68c-0.14,0.21-0.33,0.38-0.59,0.49
		c-0.26,0.12-0.55,0.18-0.87,0.18c-0.41,0-0.75-0.06-1.02-0.18c-0.28-0.12-0.49-0.3-0.65-0.54
		C134.32,316.94,134.24,316.67,134.23,316.37z M140.69,317.81v-0.48c-0.25,0.37-0.6,0.55-1.03,0.55c-0.19,0-0.37-0.04-0.54-0.11
		c-0.17-0.07-0.29-0.17-0.37-0.28c-0.08-0.11-0.14-0.25-0.17-0.41c-0.02-0.11-0.03-0.28-0.03-0.52v-2.02h0.55v1.81
		c0,0.29,0.01,0.48,0.03,0.58c0.03,0.15,0.11,0.26,0.22,0.34c0.11,0.08,0.25,0.12,0.42,0.12c0.17,0,0.32-0.04,0.47-0.13
		s0.25-0.2,0.31-0.35c0.06-0.15,0.09-0.36,0.09-0.64v-1.75h0.55v3.26H140.69z M142.05,317.81v-3.26h0.5v0.46
		c0.24-0.36,0.59-0.54,1.04-0.54c0.2,0,0.38,0.04,0.54,0.11c0.16,0.07,0.29,0.16,0.37,0.28c0.08,0.11,0.14,0.25,0.17,0.41
		c0.02,0.1,0.03,0.28,0.03,0.54v2h-0.55v-1.98c0-0.23-0.02-0.39-0.06-0.51c-0.04-0.11-0.12-0.2-0.23-0.27
		c-0.11-0.07-0.24-0.1-0.39-0.1c-0.24,0-0.44,0.07-0.61,0.22c-0.17,0.15-0.26,0.43-0.26,0.85v1.78H142.05z M147.35,317.81v-4.5h0.9
		l1.07,3.19c0.1,0.3,0.17,0.52,0.21,0.67c0.05-0.16,0.13-0.4,0.24-0.72l1.08-3.13h0.8v4.5h-0.57v-3.77l-1.31,3.77h-0.54l-1.3-3.83
		v3.83H147.35z M154.77,317.81c-0.06-0.11-0.09-0.25-0.11-0.4c-0.2,0.17-0.4,0.3-0.59,0.37c-0.19,0.07-0.39,0.11-0.61,0.11
		c-0.36,0-0.63-0.09-0.83-0.26c-0.19-0.17-0.29-0.4-0.29-0.67c0-0.16,0.04-0.31,0.11-0.44c0.07-0.13,0.17-0.24,0.29-0.32
		c0.12-0.08,0.25-0.14,0.4-0.18c0.11-0.03,0.27-0.06,0.49-0.08c0.45-0.05,0.77-0.12,0.99-0.19c0-0.08,0-0.12,0-0.14
		c0-0.23-0.05-0.38-0.16-0.48c-0.14-0.12-0.35-0.19-0.63-0.19c-0.26,0-0.45,0.05-0.58,0.14c-0.12,0.09-0.22,0.25-0.27,0.48
		l-0.54-0.07c0.05-0.23,0.13-0.42,0.24-0.56c0.11-0.14,0.28-0.25,0.49-0.33c0.21-0.08,0.46-0.12,0.74-0.12c0.28,0,0.5,0.03,0.68,0.1
		c0.17,0.07,0.3,0.15,0.38,0.25c0.08,0.1,0.14,0.22,0.17,0.38c0.02,0.09,0.03,0.26,0.03,0.51v0.74c0,0.51,0.01,0.84,0.04,0.97
		c0.02,0.14,0.07,0.27,0.14,0.39H154.77L154.77,317.81z M154.61,316.18c-0.2,0.08-0.5,0.15-0.9,0.21c-0.23,0.03-0.39,0.07-0.48,0.11
		c-0.09,0.04-0.17,0.1-0.22,0.18c-0.05,0.08-0.08,0.17-0.08,0.26c0,0.15,0.06,0.27,0.17,0.37c0.11,0.1,0.27,0.15,0.49,0.15
		c0.21,0,0.4-0.05,0.57-0.14c0.17-0.09,0.29-0.22,0.37-0.38c0.06-0.12,0.09-0.31,0.09-0.55V316.18z M156.02,317.81v-3.26h0.5v0.49
		c0.13-0.23,0.24-0.38,0.35-0.46s0.23-0.11,0.35-0.11c0.19,0,0.38,0.06,0.57,0.18l-0.19,0.51c-0.14-0.08-0.27-0.12-0.41-0.12
		c-0.12,0-0.23,0.04-0.33,0.11c-0.1,0.07-0.16,0.17-0.21,0.3c-0.06,0.2-0.09,0.41-0.09,0.64v1.71H156.02z"/>
	<path class="st1" d="M160.57,315.37c-0.23-0.08-0.4-0.2-0.51-0.36c-0.11-0.16-0.17-0.34-0.17-0.56c0-0.33,0.12-0.6,0.35-0.83
		c0.24-0.22,0.55-0.33,0.94-0.33c0.39,0,0.71,0.11,0.95,0.34c0.24,0.23,0.36,0.51,0.36,0.83c0,0.21-0.05,0.39-0.16,0.54
		c-0.11,0.15-0.28,0.27-0.5,0.36c0.28,0.09,0.49,0.24,0.63,0.44c0.14,0.2,0.22,0.44,0.22,0.72c0,0.38-0.14,0.71-0.41,0.97
		c-0.27,0.26-0.63,0.39-1.07,0.39c-0.44,0-0.8-0.13-1.07-0.39c-0.27-0.26-0.41-0.59-0.41-0.98c0-0.29,0.07-0.54,0.22-0.74
		C160.08,315.58,160.29,315.44,160.57,315.37z M160.28,316.51c0,0.16,0.04,0.31,0.11,0.46c0.07,0.15,0.19,0.26,0.33,0.34
		c0.15,0.08,0.31,0.12,0.48,0.12c0.26,0,0.48-0.08,0.65-0.25c0.17-0.17,0.26-0.39,0.26-0.65c0-0.27-0.09-0.49-0.27-0.66
		c-0.18-0.17-0.4-0.26-0.66-0.26c-0.26,0-0.48,0.09-0.65,0.26C160.36,316.04,160.28,316.26,160.28,316.51z M160.45,314.44
		c0,0.21,0.07,0.39,0.21,0.52c0.14,0.14,0.32,0.2,0.53,0.2c0.21,0,0.39-0.07,0.52-0.2c0.14-0.13,0.2-0.3,0.2-0.49
		c0-0.2-0.07-0.37-0.21-0.51c-0.14-0.14-0.31-0.21-0.52-0.21c-0.21,0-0.39,0.07-0.52,0.2C160.52,314.09,160.45,314.25,160.45,314.44
		z"/>
	<line class="st0" x1="205.61" y1="308.2" x2="205.61" y2="311.63"/>
	<path class="st1" d="M189.64,316.37l0.56-0.05c0.03,0.23,0.09,0.41,0.19,0.55c0.1,0.14,0.25,0.26,0.45,0.35
		c0.2,0.09,0.43,0.13,0.69,0.13c0.23,0,0.43-0.03,0.6-0.1c0.17-0.07,0.3-0.16,0.39-0.28c0.08-0.12,0.13-0.25,0.13-0.39
		c0-0.14-0.04-0.26-0.12-0.37c-0.08-0.11-0.22-0.19-0.41-0.27c-0.12-0.05-0.39-0.12-0.8-0.22c-0.41-0.1-0.7-0.19-0.87-0.28
		c-0.21-0.11-0.38-0.25-0.48-0.42c-0.11-0.17-0.16-0.35-0.16-0.56c0-0.23,0.06-0.44,0.19-0.64c0.13-0.2,0.32-0.35,0.56-0.45
		c0.25-0.1,0.52-0.15,0.83-0.15c0.33,0,0.63,0.05,0.88,0.16c0.25,0.11,0.45,0.27,0.59,0.47c0.14,0.21,0.21,0.45,0.22,0.71
		l-0.57,0.04c-0.03-0.28-0.13-0.5-0.31-0.64c-0.18-0.15-0.44-0.22-0.78-0.22c-0.36,0-0.62,0.07-0.79,0.2
		c-0.16,0.13-0.25,0.29-0.25,0.48c0,0.16,0.06,0.29,0.17,0.4c0.11,0.1,0.41,0.21,0.9,0.32c0.48,0.11,0.82,0.21,1,0.29
		c0.26,0.12,0.46,0.27,0.58,0.46c0.12,0.19,0.19,0.4,0.19,0.64c0,0.24-0.07,0.47-0.21,0.68s-0.33,0.38-0.59,0.49
		c-0.26,0.12-0.55,0.18-0.87,0.18c-0.41,0-0.75-0.06-1.02-0.18c-0.28-0.12-0.49-0.3-0.65-0.54
		C189.73,316.94,189.65,316.67,189.64,316.37z M196.1,317.81v-0.48c-0.25,0.37-0.6,0.55-1.03,0.55c-0.19,0-0.37-0.04-0.54-0.11
		c-0.17-0.07-0.29-0.17-0.37-0.28c-0.08-0.11-0.14-0.25-0.17-0.41c-0.02-0.11-0.03-0.28-0.03-0.52v-2.02h0.55v1.81
		c0,0.29,0.01,0.48,0.03,0.58c0.03,0.15,0.11,0.26,0.22,0.34c0.11,0.08,0.25,0.12,0.42,0.12s0.32-0.04,0.47-0.13
		c0.15-0.08,0.25-0.2,0.31-0.35c0.06-0.15,0.09-0.36,0.09-0.64v-1.75h0.55v3.26H196.1z M197.46,317.81v-3.26h0.5v0.46
		c0.24-0.36,0.59-0.54,1.04-0.54c0.2,0,0.38,0.04,0.54,0.11c0.16,0.07,0.29,0.16,0.37,0.28c0.08,0.11,0.14,0.25,0.17,0.41
		c0.02,0.1,0.03,0.28,0.03,0.54v2h-0.55v-1.98c0-0.23-0.02-0.39-0.06-0.51c-0.04-0.11-0.12-0.2-0.23-0.27
		c-0.11-0.07-0.24-0.1-0.39-0.1c-0.24,0-0.44,0.07-0.61,0.22c-0.17,0.15-0.26,0.43-0.26,0.85v1.78H197.46z M202.76,317.81v-4.5h0.9
		l1.07,3.19c0.1,0.3,0.17,0.52,0.21,0.67c0.05-0.16,0.13-0.4,0.24-0.72l1.08-3.13h0.8v4.5h-0.57v-3.77l-1.31,3.77h-0.54l-1.3-3.83
		v3.83H202.76z M210.18,317.81c-0.06-0.11-0.09-0.25-0.11-0.4c-0.2,0.17-0.4,0.3-0.59,0.37c-0.19,0.07-0.39,0.11-0.61,0.11
		c-0.36,0-0.63-0.09-0.83-0.26c-0.19-0.17-0.29-0.4-0.29-0.67c0-0.16,0.04-0.31,0.11-0.44c0.07-0.13,0.17-0.24,0.29-0.32
		c0.12-0.08,0.25-0.14,0.4-0.18c0.11-0.03,0.27-0.06,0.49-0.08c0.45-0.05,0.77-0.12,0.99-0.19c0-0.08,0-0.12,0-0.14
		c0-0.23-0.05-0.38-0.16-0.48c-0.14-0.12-0.35-0.19-0.63-0.19c-0.26,0-0.45,0.05-0.58,0.14c-0.12,0.09-0.22,0.25-0.27,0.48
		l-0.54-0.07c0.05-0.23,0.13-0.42,0.24-0.56c0.11-0.14,0.28-0.25,0.49-0.33c0.21-0.08,0.46-0.12,0.74-0.12c0.28,0,0.5,0.03,0.68,0.1
		c0.17,0.07,0.3,0.15,0.38,0.25c0.08,0.1,0.14,0.22,0.17,0.38c0.02,0.09,0.03,0.26,0.03,0.51v0.74c0,0.51,0.01,0.84,0.04,0.97
		c0.02,0.14,0.07,0.27,0.14,0.39H210.18L210.18,317.81z M210.02,316.18c-0.2,0.08-0.5,0.15-0.9,0.21c-0.23,0.03-0.39,0.07-0.48,0.11
		c-0.09,0.04-0.17,0.1-0.22,0.18c-0.05,0.08-0.08,0.17-0.08,0.26c0,0.15,0.06,0.27,0.17,0.37c0.11,0.1,0.27,0.15,0.49,0.15
		c0.21,0,0.4-0.05,0.57-0.14c0.17-0.09,0.29-0.22,0.37-0.38c0.06-0.12,0.09-0.31,0.09-0.55V316.18z M211.43,317.81v-3.26h0.5v0.49
		c0.13-0.23,0.24-0.38,0.35-0.46s0.23-0.11,0.35-0.11c0.19,0,0.38,0.06,0.57,0.18l-0.19,0.51c-0.14-0.08-0.27-0.12-0.41-0.12
		c-0.12,0-0.23,0.04-0.33,0.11c-0.1,0.07-0.16,0.17-0.21,0.3c-0.06,0.2-0.09,0.41-0.09,0.64v1.71H211.43z M218.03,317.28v0.53h-2.97
		c0-0.13,0.02-0.26,0.06-0.38c0.08-0.2,0.2-0.4,0.36-0.6c0.17-0.2,0.41-0.42,0.72-0.68c0.49-0.4,0.82-0.72,0.99-0.95
		c0.17-0.23,0.26-0.46,0.26-0.66c0-0.22-0.08-0.4-0.23-0.55c-0.16-0.15-0.36-0.23-0.61-0.23c-0.27,0-0.48,0.08-0.64,0.24
		c-0.16,0.16-0.24,0.38-0.24,0.66l-0.57-0.06c0.04-0.42,0.19-0.75,0.44-0.97c0.25-0.22,0.59-0.33,1.02-0.33
		c0.43,0,0.77,0.12,1.03,0.36c0.25,0.24,0.38,0.54,0.38,0.89c0,0.18-0.04,0.36-0.11,0.53c-0.07,0.17-0.2,0.36-0.37,0.55
		c-0.17,0.19-0.45,0.46-0.85,0.79c-0.33,0.28-0.54,0.47-0.64,0.57c-0.09,0.1-0.17,0.2-0.23,0.3H218.03z M218.7,316.77l0.53-0.05
		c0.04,0.25,0.13,0.43,0.26,0.54c0.13,0.11,0.29,0.17,0.49,0.17c0.17,0,0.32-0.04,0.45-0.12c0.13-0.08,0.23-0.18,0.31-0.31
		c0.08-0.13,0.15-0.31,0.21-0.53s0.08-0.45,0.08-0.68c0-0.02,0-0.06,0-0.11c-0.11,0.18-0.26,0.32-0.45,0.43
		c-0.19,0.11-0.4,0.16-0.62,0.16c-0.37,0-0.69-0.14-0.95-0.41c-0.26-0.27-0.39-0.63-0.39-1.07c0-0.46,0.13-0.82,0.4-1.1
		c0.27-0.28,0.61-0.42,1.01-0.42c0.29,0,0.56,0.08,0.8,0.24c0.24,0.16,0.43,0.38,0.55,0.67c0.13,0.29,0.19,0.71,0.19,1.27
		c0,0.58-0.06,1.03-0.19,1.37c-0.12,0.34-0.31,0.6-0.56,0.78c-0.25,0.18-0.54,0.27-0.87,0.27c-0.35,0-0.64-0.1-0.86-0.29
		C218.88,317.4,218.75,317.13,218.7,316.77z M220.97,314.79c0-0.32-0.08-0.57-0.25-0.76c-0.17-0.19-0.37-0.28-0.61-0.28
		c-0.25,0-0.46,0.1-0.64,0.3c-0.18,0.2-0.27,0.46-0.27,0.78c0,0.29,0.09,0.52,0.26,0.7c0.17,0.18,0.39,0.27,0.64,0.27
		c0.26,0,0.47-0.09,0.63-0.27C220.88,315.35,220.97,315.1,220.97,314.79z"/>
	<line class="st0" x1="91.29" y1="308.2" x2="91.29" y2="311.63"/>
	<line class="st0" x1="110.34" y1="308.2" x2="110.34" y2="311.63"/>
	<line class="st0" x1="129.39" y1="308.2" x2="129.39" y2="311.63"/>
	<line class="st0" x1="148.45" y1="308.2" x2="148.45" y2="311.63"/>
	<line class="st0" x1="167.5" y1="308.2" x2="167.5" y2="311.63"/>
	<line class="st0" x1="186.55" y1="308.2" x2="186.55" y2="311.63"/>
	<path class="st1" d="M70.06,309.21v-0.61h1.85v0.61H70.06z M73.34,308.02c-0.25-0.09-0.44-0.22-0.56-0.39
		c-0.12-0.17-0.18-0.37-0.18-0.61c0-0.36,0.13-0.66,0.39-0.9c0.26-0.24,0.6-0.37,1.02-0.37c0.43,0,0.77,0.12,1.03,0.37
		c0.26,0.25,0.39,0.55,0.39,0.91c0,0.23-0.06,0.43-0.18,0.59c-0.12,0.17-0.3,0.3-0.54,0.39c0.3,0.1,0.53,0.26,0.69,0.48
		c0.16,0.22,0.24,0.48,0.24,0.78c0,0.42-0.15,0.77-0.45,1.06c-0.3,0.29-0.69,0.43-1.17,0.43c-0.48,0-0.88-0.14-1.17-0.43
		c-0.3-0.29-0.45-0.64-0.45-1.07c0-0.32,0.08-0.59,0.24-0.8C72.81,308.25,73.04,308.1,73.34,308.02z M73.03,309.27
		c0,0.17,0.04,0.34,0.12,0.5c0.08,0.16,0.2,0.29,0.36,0.37c0.16,0.09,0.33,0.13,0.52,0.13c0.29,0,0.53-0.09,0.71-0.28
		c0.19-0.19,0.28-0.42,0.28-0.71c0-0.29-0.1-0.53-0.29-0.72c-0.19-0.19-0.43-0.28-0.73-0.28c-0.28,0-0.52,0.09-0.7,0.28
		C73.12,308.75,73.03,308.99,73.03,309.27z M73.22,307c0,0.23,0.07,0.42,0.22,0.57c0.15,0.15,0.34,0.22,0.58,0.22
		c0.23,0,0.42-0.07,0.57-0.22c0.15-0.15,0.22-0.33,0.22-0.54c0-0.22-0.08-0.41-0.23-0.56c-0.15-0.15-0.34-0.23-0.57-0.23
		c-0.23,0-0.42,0.07-0.57,0.22C73.3,306.62,73.22,306.8,73.22,307z M76.72,310.26c-0.32-0.41-0.49-1.07-0.49-2
		c0-0.58,0.06-1.05,0.18-1.4c0.12-0.35,0.3-0.63,0.53-0.82c0.24-0.19,0.53-0.29,0.89-0.29c0.26,0,0.49,0.05,0.69,0.16
		c0.2,0.11,0.36,0.26,0.49,0.46c0.13,0.2,0.23,0.44,0.3,0.73c0.07,0.29,0.11,0.67,0.11,1.16c0,0.58-0.06,1.04-0.18,1.39
		c-0.12,0.35-0.3,0.63-0.53,0.82c-0.24,0.19-0.53,0.29-0.89,0.29C77.36,310.77,76.99,310.6,76.72,310.26L76.72,310.26z
		 M77.16,306.61c-0.21,0.3-0.31,0.85-0.31,1.66c0,0.81,0.09,1.34,0.28,1.61c0.19,0.27,0.42,0.4,0.7,0.4c0.28,0,0.51-0.13,0.7-0.4
		c0.19-0.27,0.28-0.8,0.28-1.61c0-0.81-0.09-1.35-0.28-1.61c-0.19-0.27-0.42-0.4-0.71-0.4C77.55,306.25,77.33,306.37,77.16,306.61
		L77.16,306.61z M80.16,306.95c0-0.35,0.09-0.65,0.26-0.89c0.18-0.25,0.43-0.37,0.77-0.37c0.31,0,0.56,0.11,0.77,0.33
		c0.2,0.22,0.3,0.54,0.3,0.97c0,0.42-0.1,0.74-0.31,0.96c-0.2,0.22-0.46,0.34-0.76,0.34c-0.3,0-0.54-0.11-0.74-0.33
		S80.16,307.4,80.16,306.95z M81.21,306.11c-0.15,0-0.27,0.06-0.37,0.19c-0.1,0.13-0.15,0.37-0.15,0.71c0,0.31,0.05,0.54,0.15,0.66
		c0.1,0.13,0.22,0.19,0.37,0.19c0.15,0,0.28-0.06,0.38-0.19c0.1-0.13,0.15-0.37,0.15-0.71c0-0.32-0.05-0.54-0.15-0.67
		C81.48,306.17,81.36,306.11,81.21,306.11z M81.21,310.87l2.69-5.17h0.49l-2.68,5.17H81.21z M83.33,309.53
		c0-0.35,0.09-0.65,0.26-0.9c0.18-0.24,0.43-0.37,0.77-0.37c0.31,0,0.56,0.11,0.77,0.33c0.2,0.22,0.3,0.54,0.3,0.97
		c0,0.42-0.1,0.74-0.31,0.96s-0.46,0.34-0.76,0.34c-0.3,0-0.54-0.11-0.74-0.33C83.43,310.31,83.33,309.98,83.33,309.53z
		 M84.39,308.69c-0.15,0-0.28,0.06-0.38,0.19c-0.1,0.13-0.15,0.37-0.15,0.71c0,0.31,0.05,0.53,0.15,0.66
		c0.1,0.13,0.22,0.19,0.37,0.19c0.15,0,0.28-0.06,0.38-0.19c0.1-0.13,0.15-0.37,0.15-0.71c0-0.32-0.05-0.54-0.15-0.67
		C84.66,308.75,84.54,308.69,84.39,308.69z"/>
	<line class="st2" x1="91" y1="308.2" x2="205.32" y2="308.2"/>
	<path class="st1" d="M70.06,292.06v-0.61h1.85v0.61H70.06z M74.35,293.54v-1.18h-2.13v-0.55l2.24-3.18h0.49v3.18h0.66v0.55h-0.66
		v1.18H74.35z M74.35,291.81v-2.21l-1.54,2.21H74.35z M76.72,293.11c-0.32-0.41-0.49-1.07-0.49-2c0-0.58,0.06-1.05,0.18-1.4
		c0.12-0.35,0.3-0.63,0.53-0.82c0.24-0.19,0.53-0.29,0.89-0.29c0.26,0,0.49,0.05,0.69,0.16c0.2,0.11,0.36,0.26,0.49,0.46
		c0.13,0.2,0.23,0.44,0.3,0.73c0.07,0.29,0.11,0.67,0.11,1.16c0,0.58-0.06,1.04-0.18,1.39c-0.12,0.35-0.3,0.63-0.53,0.82
		c-0.24,0.19-0.53,0.29-0.89,0.29C77.36,293.62,76.99,293.45,76.72,293.11L76.72,293.11z M77.16,289.46
		c-0.21,0.3-0.31,0.85-0.31,1.66c0,0.81,0.09,1.34,0.28,1.61c0.19,0.27,0.42,0.4,0.7,0.4c0.28,0,0.51-0.13,0.7-0.4
		c0.19-0.27,0.28-0.8,0.28-1.61c0-0.81-0.09-1.35-0.28-1.61c-0.19-0.27-0.42-0.4-0.71-0.4C77.55,289.11,77.33,289.22,77.16,289.46
		L77.16,289.46z M80.16,289.81c0-0.35,0.09-0.65,0.26-0.89c0.18-0.25,0.43-0.37,0.77-0.37c0.31,0,0.56,0.11,0.77,0.33
		c0.2,0.22,0.3,0.54,0.3,0.97c0,0.42-0.1,0.74-0.31,0.96c-0.2,0.22-0.46,0.34-0.76,0.34c-0.3,0-0.54-0.11-0.74-0.33
		S80.16,290.25,80.16,289.81z M81.21,288.96c-0.15,0-0.27,0.06-0.37,0.19c-0.1,0.13-0.15,0.37-0.15,0.71c0,0.31,0.05,0.54,0.15,0.66
		c0.1,0.13,0.22,0.19,0.37,0.19c0.15,0,0.28-0.06,0.38-0.19c0.1-0.13,0.15-0.37,0.15-0.71c0-0.32-0.05-0.54-0.15-0.67
		C81.48,289.02,81.36,288.96,81.21,288.96z M81.21,293.72l2.69-5.17h0.49l-2.68,5.17H81.21z M83.33,292.39
		c0-0.35,0.09-0.65,0.26-0.9c0.18-0.24,0.43-0.37,0.77-0.37c0.31,0,0.56,0.11,0.77,0.33c0.2,0.22,0.3,0.54,0.3,0.97
		c0,0.42-0.1,0.74-0.31,0.96s-0.46,0.34-0.76,0.34c-0.3,0-0.54-0.11-0.74-0.33C83.43,293.16,83.33,292.83,83.33,292.39z
		 M84.39,291.54c-0.15,0-0.28,0.06-0.38,0.19c-0.1,0.13-0.15,0.37-0.15,0.71c0,0.31,0.05,0.53,0.15,0.66
		c0.1,0.13,0.22,0.19,0.37,0.19c0.15,0,0.28-0.06,0.38-0.19c0.1-0.13,0.15-0.37,0.15-0.71c0-0.32-0.05-0.54-0.15-0.67
		C84.66,291.6,84.54,291.54,84.39,291.54z"/>
	<line class="st2" x1="91" y1="291.06" x2="205.32" y2="291.06"/>
	<path class="st1" d="M60.05,276.39v-4.91h1.84c0.38,0,0.68,0.05,0.9,0.15c0.23,0.1,0.4,0.25,0.53,0.46
		c0.13,0.21,0.19,0.42,0.19,0.65c0,0.21-0.06,0.41-0.17,0.59c-0.11,0.19-0.29,0.33-0.52,0.45c0.3,0.09,0.53,0.24,0.68,0.45
		c0.16,0.21,0.24,0.46,0.24,0.74c0,0.23-0.05,0.44-0.15,0.64c-0.1,0.2-0.22,0.35-0.36,0.46c-0.14,0.11-0.32,0.19-0.54,0.24
		c-0.22,0.05-0.48,0.08-0.79,0.08H60.05z M60.7,273.54h1.06c0.29,0,0.49-0.02,0.62-0.06c0.17-0.05,0.29-0.13,0.37-0.24
		s0.13-0.26,0.13-0.43c0-0.16-0.04-0.31-0.12-0.43c-0.08-0.12-0.19-0.21-0.33-0.25c-0.15-0.05-0.39-0.07-0.75-0.07H60.7V273.54z
		 M60.7,275.81h1.22c0.21,0,0.36-0.01,0.44-0.02c0.15-0.03,0.27-0.07,0.38-0.13c0.1-0.06,0.18-0.15,0.25-0.27
		c0.06-0.12,0.1-0.26,0.1-0.41c0-0.18-0.05-0.34-0.14-0.48c-0.09-0.14-0.22-0.23-0.39-0.28c-0.17-0.05-0.41-0.08-0.72-0.08H60.7
		V275.81z M67.02,276.39c-0.06-0.13-0.1-0.27-0.12-0.44c-0.22,0.19-0.44,0.32-0.64,0.4c-0.21,0.08-0.43,0.12-0.66,0.12
		c-0.39,0-0.69-0.1-0.9-0.29c-0.21-0.19-0.31-0.43-0.31-0.73c0-0.17,0.04-0.33,0.12-0.48c0.08-0.14,0.18-0.26,0.31-0.35
		c0.13-0.09,0.27-0.15,0.43-0.2c0.12-0.03,0.3-0.06,0.54-0.09c0.49-0.06,0.85-0.13,1.08-0.21c0-0.08,0-0.14,0-0.16
		c0-0.25-0.06-0.42-0.17-0.52c-0.15-0.14-0.38-0.2-0.69-0.2c-0.28,0-0.49,0.05-0.63,0.15c-0.14,0.1-0.24,0.28-0.3,0.53l-0.59-0.08
		c0.05-0.25,0.14-0.46,0.26-0.61c0.12-0.16,0.3-0.27,0.53-0.36c0.23-0.08,0.5-0.13,0.81-0.13c0.3,0,0.55,0.04,0.74,0.11
		c0.19,0.07,0.33,0.16,0.42,0.27c0.09,0.11,0.15,0.25,0.19,0.41c0.02,0.1,0.03,0.29,0.03,0.56v0.8c0,0.56,0.01,0.91,0.04,1.06
		c0.03,0.15,0.08,0.29,0.15,0.43H67.02L67.02,276.39z M66.85,274.6c-0.22,0.09-0.55,0.17-0.98,0.23c-0.25,0.04-0.42,0.08-0.53,0.12
		c-0.1,0.04-0.18,0.11-0.24,0.2c-0.06,0.09-0.08,0.18-0.08,0.29c0,0.16,0.06,0.29,0.18,0.4c0.12,0.11,0.3,0.16,0.53,0.16
		c0.23,0,0.44-0.05,0.62-0.15c0.18-0.1,0.31-0.24,0.4-0.42c0.06-0.14,0.1-0.34,0.1-0.6V274.6z M68.15,275.33l0.6-0.09
		c0.03,0.24,0.13,0.42,0.28,0.55c0.15,0.13,0.37,0.19,0.64,0.19c0.28,0,0.48-0.06,0.62-0.17c0.13-0.11,0.2-0.24,0.2-0.4
		c0-0.14-0.06-0.24-0.18-0.32c-0.08-0.05-0.29-0.12-0.62-0.2c-0.44-0.11-0.75-0.21-0.92-0.29c-0.17-0.08-0.3-0.19-0.39-0.34
		c-0.09-0.14-0.13-0.3-0.13-0.48c0-0.16,0.04-0.31,0.11-0.44c0.07-0.14,0.17-0.25,0.3-0.34c0.09-0.07,0.22-0.13,0.38-0.18
		c0.16-0.05,0.34-0.07,0.52-0.07c0.28,0,0.52,0.04,0.74,0.12s0.37,0.19,0.47,0.33c0.1,0.14,0.17,0.32,0.21,0.55l-0.59,0.08
		c-0.03-0.18-0.1-0.33-0.23-0.43c-0.13-0.1-0.31-0.15-0.54-0.15c-0.28,0-0.47,0.05-0.59,0.14c-0.12,0.09-0.18,0.2-0.18,0.32
		c0,0.08,0.02,0.15,0.07,0.21c0.05,0.06,0.13,0.12,0.23,0.16c0.06,0.02,0.24,0.07,0.53,0.15c0.43,0.11,0.72,0.21,0.89,0.28
		c0.17,0.07,0.3,0.18,0.4,0.32c0.1,0.14,0.14,0.31,0.14,0.52c0,0.2-0.06,0.39-0.18,0.57c-0.12,0.18-0.29,0.31-0.51,0.41
		c-0.22,0.1-0.47,0.15-0.75,0.15c-0.46,0-0.81-0.1-1.06-0.29C68.37,275.99,68.22,275.71,68.15,275.33z M74.25,275.24l0.62,0.08
		c-0.1,0.36-0.28,0.65-0.55,0.85c-0.27,0.2-0.61,0.3-1.02,0.3c-0.52,0-0.93-0.16-1.24-0.48c-0.3-0.32-0.46-0.77-0.46-1.35
		c0-0.6,0.15-1.06,0.46-1.39c0.31-0.33,0.71-0.5,1.2-0.5c0.48,0,0.86,0.16,1.17,0.49c0.3,0.32,0.45,0.78,0.45,1.37
		c0,0.04,0,0.09,0,0.16h-2.65c0.02,0.39,0.13,0.69,0.33,0.9c0.2,0.21,0.45,0.31,0.74,0.31c0.22,0,0.41-0.06,0.57-0.17
		C74.04,275.68,74.16,275.5,74.25,275.24z M72.28,274.27h1.99c-0.03-0.3-0.1-0.52-0.23-0.67c-0.19-0.23-0.44-0.35-0.75-0.35
		c-0.28,0-0.51,0.09-0.7,0.28C72.4,273.71,72.3,273.96,72.28,274.27z M75.62,276.39v-4.91h0.6v4.91H75.62z M77.16,272.17v-0.69h0.6
		v0.69H77.16z M77.16,276.39v-3.56h0.6v3.56H77.16z M78.68,276.39v-3.56h0.54v0.51c0.26-0.39,0.64-0.59,1.13-0.59
		c0.21,0,0.41,0.04,0.59,0.12c0.18,0.08,0.31,0.18,0.4,0.3c0.09,0.13,0.15,0.27,0.19,0.45c0.02,0.11,0.03,0.31,0.03,0.59v2.19h-0.6
		v-2.16c0-0.25-0.02-0.43-0.07-0.55c-0.05-0.12-0.13-0.22-0.25-0.29c-0.12-0.07-0.26-0.11-0.42-0.11c-0.26,0-0.48,0.08-0.66,0.24
		c-0.19,0.16-0.28,0.47-0.28,0.93v1.94H78.68z M84.93,275.24l0.62,0.08c-0.1,0.36-0.28,0.65-0.55,0.85c-0.27,0.2-0.61,0.3-1.02,0.3
		c-0.52,0-0.93-0.16-1.24-0.48c-0.3-0.32-0.46-0.77-0.46-1.35c0-0.6,0.15-1.06,0.46-1.39c0.31-0.33,0.71-0.5,1.2-0.5
		c0.48,0,0.86,0.16,1.17,0.49c0.3,0.32,0.45,0.78,0.45,1.37c0,0.04,0,0.09,0,0.16h-2.65c0.02,0.39,0.13,0.69,0.33,0.9
		c0.2,0.21,0.45,0.31,0.74,0.31c0.22,0,0.41-0.06,0.57-0.17C84.72,275.68,84.84,275.5,84.93,275.24z M82.95,274.27h1.99
		c-0.03-0.3-0.1-0.52-0.23-0.67c-0.19-0.23-0.44-0.35-0.75-0.35c-0.28,0-0.51,0.09-0.7,0.28C83.08,273.71,82.97,273.96,82.95,274.27
		z"/>
	<line class="st2" x1="91" y1="273.91" x2="205.32" y2="273.91"/>
	<path class="st1" d="M69.84,258.45v-1.35h-1.34v-0.56h1.34v-1.34h0.57v1.34h1.34v0.56h-1.34v1.35H69.84z M74.35,259.24v-1.18h-2.13
		v-0.55l2.24-3.18h0.49v3.18h0.66v0.55h-0.66v1.18H74.35z M74.35,257.51v-2.21l-1.54,2.21H74.35z M76.72,258.82
		c-0.32-0.41-0.49-1.07-0.49-2c0-0.58,0.06-1.05,0.18-1.4c0.12-0.35,0.3-0.63,0.53-0.82c0.24-0.19,0.53-0.29,0.89-0.29
		c0.26,0,0.49,0.05,0.69,0.16c0.2,0.11,0.36,0.26,0.49,0.46c0.13,0.2,0.23,0.44,0.3,0.73c0.07,0.29,0.11,0.67,0.11,1.16
		c0,0.58-0.06,1.04-0.18,1.39c-0.12,0.35-0.3,0.63-0.53,0.82c-0.24,0.19-0.53,0.29-0.89,0.29
		C77.36,259.33,76.99,259.16,76.72,258.82L76.72,258.82z M77.16,255.16c-0.21,0.3-0.31,0.85-0.31,1.66c0,0.81,0.09,1.34,0.28,1.61
		c0.19,0.27,0.42,0.4,0.7,0.4c0.28,0,0.51-0.13,0.7-0.4c0.19-0.27,0.28-0.8,0.28-1.61c0-0.81-0.09-1.35-0.28-1.61
		c-0.19-0.27-0.42-0.4-0.71-0.4C77.55,254.81,77.33,254.93,77.16,255.16L77.16,255.16z M80.16,255.51c0-0.35,0.09-0.65,0.26-0.89
		c0.18-0.25,0.43-0.37,0.77-0.37c0.31,0,0.56,0.11,0.77,0.33c0.2,0.22,0.3,0.54,0.3,0.97c0,0.42-0.1,0.74-0.31,0.96
		c-0.2,0.22-0.46,0.34-0.76,0.34c-0.3,0-0.54-0.11-0.74-0.33S80.16,255.96,80.16,255.51z M81.21,254.66c-0.15,0-0.27,0.06-0.37,0.19
		c-0.1,0.13-0.15,0.37-0.15,0.71c0,0.31,0.05,0.54,0.15,0.66c0.1,0.13,0.22,0.19,0.37,0.19c0.15,0,0.28-0.06,0.38-0.19
		c0.1-0.13,0.15-0.37,0.15-0.71c0-0.32-0.05-0.54-0.15-0.67C81.48,254.73,81.36,254.66,81.21,254.66z M81.21,259.42l2.69-5.17h0.49
		l-2.68,5.17H81.21z M83.33,258.09c0-0.35,0.09-0.65,0.26-0.9c0.18-0.24,0.43-0.37,0.77-0.37c0.31,0,0.56,0.11,0.77,0.33
		c0.2,0.22,0.3,0.54,0.3,0.97c0,0.42-0.1,0.74-0.31,0.96s-0.46,0.34-0.76,0.34c-0.3,0-0.54-0.11-0.74-0.33
		C83.43,258.87,83.33,258.53,83.33,258.09z M84.39,257.24c-0.15,0-0.28,0.06-0.38,0.19c-0.1,0.13-0.15,0.37-0.15,0.71
		c0,0.31,0.05,0.53,0.15,0.66c0.1,0.13,0.22,0.19,0.37,0.19c0.15,0,0.28-0.06,0.38-0.19c0.1-0.13,0.15-0.37,0.15-0.71
		c0-0.32-0.05-0.54-0.15-0.67C84.66,257.31,84.54,257.24,84.39,257.24z"/>
	<line class="st2" x1="91" y1="256.76" x2="205.32" y2="256.76"/>
	<path class="st1" d="M69.84,241.3v-1.35h-1.34v-0.56h1.34v-1.34h0.57v1.34h1.34v0.56h-1.34v1.35H69.84z M73.34,239.43
		c-0.25-0.09-0.44-0.22-0.56-0.39c-0.12-0.17-0.18-0.37-0.18-0.61c0-0.36,0.13-0.66,0.39-0.9c0.26-0.24,0.6-0.37,1.02-0.37
		c0.43,0,0.77,0.12,1.03,0.37c0.26,0.25,0.39,0.55,0.39,0.91c0,0.23-0.06,0.43-0.18,0.59c-0.12,0.17-0.3,0.3-0.54,0.39
		c0.3,0.1,0.53,0.26,0.69,0.48c0.16,0.22,0.24,0.48,0.24,0.78c0,0.42-0.15,0.77-0.45,1.06c-0.3,0.29-0.69,0.43-1.17,0.43
		c-0.48,0-0.88-0.14-1.17-0.43c-0.3-0.29-0.45-0.64-0.45-1.07c0-0.32,0.08-0.59,0.24-0.8C72.81,239.66,73.04,239.51,73.34,239.43z
		 M73.03,240.68c0,0.17,0.04,0.34,0.12,0.5c0.08,0.16,0.2,0.29,0.36,0.37c0.16,0.09,0.33,0.13,0.52,0.13c0.29,0,0.53-0.09,0.71-0.28
		c0.19-0.19,0.28-0.42,0.28-0.71c0-0.29-0.1-0.53-0.29-0.72c-0.19-0.19-0.43-0.28-0.73-0.28c-0.28,0-0.52,0.09-0.7,0.28
		C73.12,240.16,73.03,240.4,73.03,240.68z M73.22,238.41c0,0.23,0.07,0.42,0.22,0.57c0.15,0.15,0.34,0.22,0.58,0.22
		c0.23,0,0.42-0.07,0.57-0.22c0.15-0.15,0.22-0.33,0.22-0.54c0-0.22-0.08-0.41-0.23-0.56c-0.15-0.15-0.34-0.23-0.57-0.23
		c-0.23,0-0.42,0.07-0.57,0.22C73.3,238.03,73.22,238.21,73.22,238.41z M76.72,241.67c-0.32-0.41-0.49-1.07-0.49-2
		c0-0.58,0.06-1.05,0.18-1.4c0.12-0.35,0.3-0.63,0.53-0.82c0.24-0.19,0.53-0.29,0.89-0.29c0.26,0,0.49,0.05,0.69,0.16
		c0.2,0.11,0.36,0.26,0.49,0.46c0.13,0.2,0.23,0.44,0.3,0.73c0.07,0.29,0.11,0.67,0.11,1.16c0,0.58-0.06,1.04-0.18,1.39
		c-0.12,0.35-0.3,0.63-0.53,0.82c-0.24,0.19-0.53,0.29-0.89,0.29C77.36,242.18,76.99,242.01,76.72,241.67L76.72,241.67z
		 M77.16,238.02c-0.21,0.3-0.31,0.85-0.31,1.66c0,0.81,0.09,1.34,0.28,1.61c0.19,0.27,0.42,0.4,0.7,0.4c0.28,0,0.51-0.13,0.7-0.4
		c0.19-0.27,0.28-0.8,0.28-1.61c0-0.81-0.09-1.35-0.28-1.61c-0.19-0.27-0.42-0.4-0.71-0.4C77.55,237.66,77.33,237.78,77.16,238.02
		L77.16,238.02z M80.16,238.36c0-0.35,0.09-0.65,0.26-0.89c0.18-0.25,0.43-0.37,0.77-0.37c0.31,0,0.56,0.11,0.77,0.33
		c0.2,0.22,0.3,0.54,0.3,0.97c0,0.42-0.1,0.74-0.31,0.96c-0.2,0.22-0.46,0.34-0.76,0.34c-0.3,0-0.54-0.11-0.74-0.33
		S80.16,238.81,80.16,238.36z M81.21,237.52c-0.15,0-0.27,0.06-0.37,0.19c-0.1,0.13-0.15,0.37-0.15,0.71c0,0.31,0.05,0.54,0.15,0.66
		c0.1,0.13,0.22,0.19,0.37,0.19c0.15,0,0.28-0.06,0.38-0.19c0.1-0.13,0.15-0.37,0.15-0.71c0-0.32-0.05-0.54-0.15-0.67
		C81.48,237.58,81.36,237.52,81.21,237.52z M81.21,242.28l2.69-5.17h0.49l-2.68,5.17H81.21z M83.33,240.94
		c0-0.35,0.09-0.65,0.26-0.9c0.18-0.24,0.43-0.37,0.77-0.37c0.31,0,0.56,0.11,0.77,0.33c0.2,0.22,0.3,0.54,0.3,0.97
		c0,0.42-0.1,0.74-0.31,0.96s-0.46,0.34-0.76,0.34c-0.3,0-0.54-0.11-0.74-0.33C83.43,241.72,83.33,241.39,83.33,240.94z
		 M84.39,240.1c-0.15,0-0.28,0.06-0.38,0.19c-0.1,0.13-0.15,0.37-0.15,0.71c0,0.31,0.05,0.53,0.15,0.66
		c0.1,0.13,0.22,0.19,0.37,0.19c0.15,0,0.28-0.06,0.38-0.19c0.1-0.13,0.15-0.37,0.15-0.71c0-0.32-0.05-0.54-0.15-0.67
		C84.66,240.16,84.54,240.1,84.39,240.1z"/>
	<line class="st2" x1="91" y1="239.61" x2="205.32" y2="239.61"/>
</g>
<polyline class="st3" points="91,272.51 93.73,273.52 96.45,273.81 99.17,274.05 101.89,274.55 104.61,275.1 107.33,274 
	110.06,274.37 112.78,274.5 115.5,274.15 118.22,275.13 120.94,274.43 123.67,271.42 126.39,268.53 129.11,269.2 131.83,271.9 
	134.55,271.99 137.27,273.68 140,274.36 142.72,273.63 145.44,271.1 148.16,271.81 150.88,275.27 153.61,275 156.33,277.5 
	159.05,276.96 161.77,275.22 164.49,273.5 167.21,278.23 169.94,282.58 172.66,287.13 175.38,290.09 178.1,295.91 180.82,297.18 
	183.55,300.88 186.27,304.61 188.99,300.67 191.71,301.14 194.43,301.16 197.15,300.18 199.88,302.82 202.6,303.21 205.32,305.36 
	"/>
</svg>
